HIERARCHY
ROOT Hips
{
  OFFSET -451.963 92.2812 1433.7
  CHANNELS 6 Xposition Yposition Zposition Zrotation Xrotation Yrotation
  JOINT Spine
  {
    OFFSET -1.51497e-05 8 8.99659e-05
    CHANNELS 6 Xposition Yposition Zposition Zrotation Xrotation Yrotation
    JOINT Spine1
    {
      OFFSET 0.00092412 8 0.00118329
      CHANNELS 6 Xposition Yposition Zposition Zrotation Xrotation Yrotation
      JOINT Spine2
      {
        OFFSET 2.53914e-05 8 3.87681e-05
        CHANNELS 6 Xposition Yposition Zposition Zrotation Xrotation Yrotation
        JOINT Spine3
        {
          OFFSET 0 8 0
          CHANNELS 6 Xposition Yposition Zposition Zrotation Xrotation Yrotation
          JOINT Neck
          {
            OFFSET 1.47033e-05 17 -8.81466e-05
            CHANNELS 6 Xposition Yposition Zposition Zrotation Xrotation Yrotation
            JOINT Head
            {
              OFFSET 0.00157594 10.8 0.00441236
              CHANNELS 6 Xposition Yposition Zposition Zrotation Xrotation Yrotation
              End Site
              {
                OFFSET 0 20.25 0
              }
            }
          }
          JOINT LeftShoulder
          {
            OFFSET 5 17 -0.000100653
            CHANNELS 6 Xposition Yposition Zposition Zrotation Xrotation Yrotation
            JOINT LeftShoulder2
            {
              OFFSET 6.45 0 0
              CHANNELS 6 Xposition Yposition Zposition Zrotation Xrotation Yrotation
              JOINT LeftArm
              {
                OFFSET 6.44998 8.34878e-05 -3.00093e-05
                CHANNELS 6 Xposition Yposition Zposition Zrotation Xrotation Yrotation
                JOINT LeftForeArm
                {
                  OFFSET 0.0124623 -32.4188 -2.01807
                  CHANNELS 6 Xposition Yposition Zposition Zrotation Xrotation Yrotation
                  JOINT LeftHand
                  {
                    OFFSET -0.000832934 -25.6523 2.00254
                    CHANNELS 6 Xposition Yposition Zposition Zrotation Xrotation Yrotation
                    JOINT LeftHandThumb1
                    {
                      OFFSET -0.499829 -1.49949 2.64891
                      CHANNELS 6 Xposition Yposition Zposition Zrotation Xrotation Yrotation
                      JOINT LeftHandThumb2
                      {
                        OFFSET 0.00470755 -3.80342 3.68929
                        CHANNELS 6 Xposition Yposition Zposition Zrotation Xrotation Yrotation
                        JOINT LeftHandThumb3
                        {
                          OFFSET -0.00015601 -3.00049 2.70051
                          CHANNELS 6 Xposition Yposition Zposition Zrotation Xrotation Yrotation
                          End Site
                          {
                            OFFSET 0.000819371 -2.29953 1.79812
                          }
                        }
                      }
                    }
                    JOINT LeftHandIndex
                    {
                      OFFSET -0.00243816 -1.9023 1.60369
                      CHANNELS 6 Xposition Yposition Zposition Zrotation Xrotation Yrotation
                      JOINT LeftHandIndex1
                      {
                        OFFSET -0.0126097 -8.3097 1.91802
                        CHANNELS 6 Xposition Yposition Zposition Zrotation Xrotation Yrotation
                        JOINT LeftHandIndex2
                        {
                          OFFSET 5.88179e-05 -4.49964 -0.000702867
                          CHANNELS 6 Xposition Yposition Zposition Zrotation Xrotation Yrotation
                          JOINT LeftHandIndex3
                          {
                            OFFSET 0.00121572 -3.40603 0.0108941
                            CHANNELS 6 Xposition Yposition Zposition Zrotation Xrotation Yrotation
                            End Site
                            {
                              OFFSET -0.000347439 -2.599 0.000421216
                            }
                          }
                        }
                      }
                    }
                    JOINT LeftHandMiddle
                    {
                      OFFSET -0.246876 -2.19788 0.39493
                      CHANNELS 6 Xposition Yposition Zposition Zrotation Xrotation Yrotation
                      JOINT LeftHandMiddle1
                      {
                        OFFSET -0.00740961 -8.30724 1.01152
                        CHANNELS 6 Xposition Yposition Zposition Zrotation Xrotation Yrotation
                        JOINT LeftHandMiddle2
                        {
                          OFFSET -0.00022778 -4.64991 0.000146751
                          CHANNELS 6 Xposition Yposition Zposition Zrotation Xrotation Yrotation
                          JOINT LeftHandMiddle3
                          {
                            OFFSET -0.00145985 -3.30244 -0.000312756
                            CHANNELS 6 Xposition Yposition Zposition Zrotation Xrotation Yrotation
                            End Site
                            {
                              OFFSET -2.41759e-05 -2.69999 0.000151037
                            }
                          }
                        }
                      }
                    }
                    JOINT LeftHandRing
                    {
                      OFFSET -0.497958 -2.14651 -0.80306
                      CHANNELS 6 Xposition Yposition Zposition Zrotation Xrotation Yrotation
                      JOINT LeftHandRing1
                      {
                        OFFSET 0.00298284 -7.75109 -0.205013
                        CHANNELS 6 Xposition Yposition Zposition Zrotation Xrotation Yrotation
                        JOINT LeftHandRing2
                        {
                          OFFSET -0.000613432 -3.79963 0.000259359
                          CHANNELS 6 Xposition Yposition Zposition Zrotation Xrotation Yrotation
                          JOINT LeftHandRing3
                          {
                            OFFSET -0.000440049 -3.39958 -0.000600404
                            CHANNELS 6 Xposition Yposition Zposition Zrotation Xrotation Yrotation
                            End Site
                            {
                              OFFSET 0.000374347 -2.59972 0.000499087
                            }
                          }
                        }
                      }
                    }
                    JOINT LeftHandPinky
                    {
                      OFFSET -0.746642 -1.74584 -1.85469
                      CHANNELS 6 Xposition Yposition Zposition Zrotation Xrotation Yrotation
                      JOINT LeftHandPinky1
                      {
                        OFFSET -2.29029e-05 -7.15019 -0.999884
                        CHANNELS 6 Xposition Yposition Zposition Zrotation Xrotation Yrotation
                        JOINT LeftHandPinky2
                        {
                          OFFSET 0.000451998 -2.99986 -0.000197996
                          CHANNELS 6 Xposition Yposition Zposition Zrotation Xrotation Yrotation
                          JOINT LeftHandPinky3
                          {
                            OFFSET -0.00103002 -2.34694 -0.0046939
                            CHANNELS 6 Xposition Yposition Zposition Zrotation Xrotation Yrotation
                            End Site
                            {
                              OFFSET -0.000654765 -2.09948 -0.000475546
                            }
                          }
                        }
                      }
                    }
                  }
                }
              }
            }
          }
          JOINT RightShoulder
          {
            OFFSET -5.00009 17 -2.88823e-05
            CHANNELS 6 Xposition Yposition Zposition Zrotation Xrotation Yrotation
            JOINT RightShoulder2
            {
              OFFSET -6.45 0 0
              CHANNELS 6 Xposition Yposition Zposition Zrotation Xrotation Yrotation
              JOINT RightArm
              {
                OFFSET -6.44997 -8.93521e-05 -0.000345996
                CHANNELS 6 Xposition Yposition Zposition Zrotation Xrotation Yrotation
                JOINT RightForeArm
                {
                  OFFSET -0.000101542 -32.4 -2.00002
                  CHANNELS 6 Xposition Yposition Zposition Zrotation Xrotation Yrotation
                  JOINT RightHand
                  {
                    OFFSET -0.00401545 -25.6541 2.00306
                    CHANNELS 6 Xposition Yposition Zposition Zrotation Xrotation Yrotation
                    JOINT RightHandThumb1
                    {
                      OFFSET 0.500817 -1.5039 2.64754
                      CHANNELS 6 Xposition Yposition Zposition Zrotation Xrotation Yrotation
                      JOINT RightHandThumb2
                      {
                        OFFSET -0.00444818 -3.80555 3.70522
                        CHANNELS 6 Xposition Yposition Zposition Zrotation Xrotation Yrotation
                        JOINT RightHandThumb3
                        {
                          OFFSET 0.00263326 -2.99951 2.69624
                          CHANNELS 6 Xposition Yposition Zposition Zrotation Xrotation Yrotation
                          End Site
                          {
                            OFFSET -0.000676751 -2.29824 1.80042
                          }
                        }
                      }
                    }
                    JOINT RightHandIndex
                    {
                      OFFSET 0.000176011 -1.89877 1.59999
                      CHANNELS 6 Xposition Yposition Zposition Zrotation Xrotation Yrotation
                      JOINT RightHandIndex1
                      {
                        OFFSET -0.00320222 -8.29979 1.9039
                        CHANNELS 6 Xposition Yposition Zposition Zrotation Xrotation Yrotation
                        JOINT RightHandIndex2
                        {
                          OFFSET -0.000163783 -4.50174 -0.00316724
                          CHANNELS 6 Xposition Yposition Zposition Zrotation Xrotation Yrotation
                          JOINT RightHandIndex3
                          {
                            OFFSET 0.000279594 -3.40034 0.000375192
                            CHANNELS 6 Xposition Yposition Zposition Zrotation Xrotation Yrotation
                            End Site
                            {
                              OFFSET -5.75757e-05 -2.60393 -0.00473674
                            }
                          }
                        }
                      }
                    }
                    JOINT RightHandMiddle
                    {
                      OFFSET 0.24953 -2.19582 0.401648
                      CHANNELS 6 Xposition Yposition Zposition Zrotation Xrotation Yrotation
                      JOINT RightHandMiddle1
                      {
                        OFFSET 0.00221927 -8.29515 0.999491
                        CHANNELS 6 Xposition Yposition Zposition Zrotation Xrotation Yrotation
                        JOINT RightHandMiddle2
                        {
                          OFFSET 0.0116118 -4.64301 -0.00349329
                          CHANNELS 6 Xposition Yposition Zposition Zrotation Xrotation Yrotation
                          JOINT RightHandMiddle3
                          {
                            OFFSET -0.00171851 -3.29882 0.000997285
                            CHANNELS 6 Xposition Yposition Zposition Zrotation Xrotation Yrotation
                            End Site
                            {
                              OFFSET -0.0109822 -2.69409 0.0103475
                            }
                          }
                        }
                      }
                    }
                    JOINT RightHandRing
                    {
                      OFFSET 0.501346 -2.14388 -0.799998
                      CHANNELS 6 Xposition Yposition Zposition Zrotation Xrotation Yrotation
                      JOINT RightHandRing1
                      {
                        OFFSET -0.000365377 -7.74988 -0.20057
                        CHANNELS 6 Xposition Yposition Zposition Zrotation Xrotation Yrotation
                        JOINT RightHandRing2
                        {
                          OFFSET 0.000678042 -3.8 -0.000254587
                          CHANNELS 6 Xposition Yposition Zposition Zrotation Xrotation Yrotation
                          JOINT RightHandRing3
                          {
                            OFFSET -0.00110412 -3.40088 0.0013974
                            CHANNELS 6 Xposition Yposition Zposition Zrotation Xrotation Yrotation
                            End Site
                            {
                              OFFSET -0.000658724 -2.5999 0.00102115
                            }
                          }
                        }
                      }
                    }
                    JOINT RightHandPinky
                    {
                      OFFSET 0.749892 -1.7487 -1.84943
                      CHANNELS 6 Xposition Yposition Zposition Zrotation Xrotation Yrotation
                      JOINT RightHandPinky1
                      {
                        OFFSET -0.00131677 -7.15302 -0.999162
                        CHANNELS 6 Xposition Yposition Zposition Zrotation Xrotation Yrotation
                        JOINT RightHandPinky2
                        {
                          OFFSET -0.0250233 -3.0027 0.00557317
                          CHANNELS 6 Xposition Yposition Zposition Zrotation Xrotation Yrotation
                          JOINT RightHandPinky3
                          {
                            OFFSET 7.04607e-05 -2.34979 -8.12283e-05
                            CHANNELS 6 Xposition Yposition Zposition Zrotation Xrotation Yrotation
                            End Site
                            {
                              OFFSET -0.000310914 -2.09995 0.000246229
                            }
                          }
                        }
                      }
                    }
                  }
                }
              }
            }
          }
        }
      }
    }
  }
  JOINT LeftUpLeg
  {
    OFFSET 8 0 6.36683e-05
    CHANNELS 6 Xposition Yposition Zposition Zrotation Xrotation Yrotation
    JOINT LeftLeg
    {
      OFFSET -0.000226232 -44.9999 -1.00001
      CHANNELS 6 Xposition Yposition Zposition Zrotation Xrotation Yrotation
      JOINT LeftFoot
      {
        OFFSET -0.00179898 -40.9995 -2.00262
        CHANNELS 6 Xposition Yposition Zposition Zrotation Xrotation Yrotation
        JOINT LeftToeBase
        {
          OFFSET -0.000253235 -7.49995 12.5
          CHANNELS 6 Xposition Yposition Zposition Zrotation Xrotation Yrotation
          JOINT LeftFootToe
          {
            OFFSET 0 0 4
            CHANNELS 6 Xposition Yposition Zposition Zrotation Xrotation Yrotation
            End Site
            {
              OFFSET 0 0 0
            }
          }
        }
      }
    }
  }
  JOINT RightUpLeg
  {
    OFFSET -8 0 -6.36683e-05
    CHANNELS 6 Xposition Yposition Zposition Zrotation Xrotation Yrotation
    JOINT RightLeg
    {
      OFFSET -0.00349576 -44.9957 -1.00177
      CHANNELS 6 Xposition Yposition Zposition Zrotation Xrotation Yrotation
      JOINT RightFoot
      {
        OFFSET 0.0112932 -41.0337 -1.99564
        CHANNELS 6 Xposition Yposition Zposition Zrotation Xrotation Yrotation
        JOINT RightToeBase
        {
          OFFSET 0.000245431 -7.50018 12.4996
          CHANNELS 6 Xposition Yposition Zposition Zrotation Xrotation Yrotation
          JOINT RightFootToe
          {
            OFFSET 0 0 4
            CHANNELS 6 Xposition Yposition Zposition Zrotation Xrotation Yrotation
            End Site
            {
              OFFSET 0 0 0
            }
          }
        }
      }
    }
  }
}
MOTION
Frames:	3
Frame Time:	0.0111111
-429.66 91.5537 1438.43 3.06954 5.00171 -122.982 0 8 0 7.53836 2.092 14.1245 0 8 -5.68434e-14 -0.606746 1.16698 6.41752 0 8 5.68434e-14 -0.295758 0.597217 3.21063 0 8 1.13687e-13 -0.279849 0.586887 3.20098 0 17 -1.13687e-13 1.82449 3.38517 7.56414 2.27374e-13 10.8 0 -1.65008 -6.31378 17.8005 5 17 0 -1.15898 4.85142 -6.28173 6.45 -2.84217e-14 0 -0.468239 -0.691241 1.53542 6.45 -2.84217e-14 -1.13687e-13 14.6697 -12.8631 22.8104 2.27374e-13 -32.4 -2 -74.5054 -37.0422 -49.8032 0 -25.65 2 -7.89829 14.5196 27.1354 -0.5 -1.5 2.65 -8.44215 -26.0676 5.84385 -1.13687e-13 -3.8 3.7 15.9142 28.1896 3.34273 2.27374e-13 -3 2.7 0.00195431 0.0532402 0.000199173 2.27374e-13 -1.9 1.6 1.06843e-06 -9.74244e-07 -9.05516e-07 -2.27374e-13 -8.3 1.9 -1.17625 4.72967 0.0967456 2.27374e-13 -4.5 0 -28.0939 0.0354958 0.0139512 1.13687e-13 -3.4 0 -20.8083 0.00728467 0.0141086 -0.25 -2.2 0.4 1.06843e-06 -9.74244e-07 -9.05516e-07 2.27374e-13 -8.3 1 -10.9274 6.21981 0.863721 0 -4.65 1.13687e-13 -69.8688 -0.00549104 0.00627561 -1.13687e-13 -3.3 2.27374e-13 -90.0002 -2.08299e-05 -0.0123834 -0.5 -2.15 -0.8 1.06843e-06 -9.74244e-07 -9.05516e-07 0 -7.75 -0.2 -21.5977 -4.54978 -0.217793 1.13687e-13 -3.8 0 -0.28861 0.0395344 -0.112669 -1.13687e-13 -3.4 -2.27374e-13 -26.0501 -5.40339e-05 0.000905741 -0.75 -1.75 -1.85 1.06843e-06 -9.74244e-07 -9.05516e-07 0 -7.15 -1 -31.0967 -2.58772 0.561043 -1.13687e-13 -3 -1.13687e-13 -0.0953867 0.0156196 0.0389728 0 -2.35 0 -0.000125338 0.00786283 0.035546 -5 17 0 6.93743 6.96726 0.229975 -6.45 -2.84217e-14 -1.13687e-13 -1.56204 -0.366446 -3.65162 -6.45 0 0 -59.9317 12.8802 0.723111 0 -32.4 -2 93.4449 -46.9799 80.9767 0 -25.65 2 -12.4651 4.80656 25.3432 0.5 -1.5 2.65 -172.159 81.5167 -14.0078 -1.7053e-13 -3.8 3.7 -23.5268 42.7811 2.68978 1.13687e-13 -3 2.7 0.0589965 36.2502 -0.0519474 5.68434e-14 -1.9 1.6 -7.57073e-07 1.25919e-05 -6.07416e-06 0 -8.3 1.9 0.212562 3.78936 -0.0194509 -5.68434e-14 -4.5 2.27374e-13 6.7167 1.43953 0.0109105 4.54747e-13 -3.4 2.27374e-13 6.39494 -0.0100859 -0.0813299 0.25 -2.2 0.4 -7.57073e-07 1.25919e-05 -6.07416e-06 -5.68434e-14 -8.3 1 4.79832 10.8877 -0.660726 0 -4.65 0 36.1304 18.4413 1.29697 5.68434e-14 -3.3 2.27374e-13 30.4441 0.0113666 -0.00355649 0.5 -2.15 -0.8 -7.57073e-07 1.25919e-05 -6.07416e-06 5.68434e-14 -7.75 -0.2 25.4826 14.9273 -4.39288 2.84217e-13 -3.8 2.27374e-13 19.7454 20.4625 3.40882 1.7053e-13 -3.4 -2.27374e-13 27.1651 -0.0246509 -0.0428886 0.75 -1.75 -1.85 -7.57073e-07 1.25919e-05 -6.07416e-06 0 -7.15 -1 47.1665 7.10189 -5.85979 -5.68434e-14 -3 2.27374e-13 22.8596 15.8973 1.40717 0 -2.35 0 23.7635 -0.0246618 0.0725895 8 0 5.68434e-14 33.6751 -19.6813 33.4284 0 -45 -1 -24.5878 20.7421 12.5981 0 -41 -2 11.7407 2.31117 -8.29874 -2.27374e-13 -7.5 12.5 -0.000307556 -0.362373 0.0877406 2.27374e-13 0 4 0.460015 -7.11618 4.07715 -8 0 -5.68434e-14 20.1754 -25.0776 -43.3078 0 -45 -1 -43.3911 1.37055 15.661 0 -41 -2 23.4258 3.7384 -15.4936 1.13687e-13 -7.5 12.5 0.00154349 0.276984 0.000891249 0 0 4 0.871706 -0.0727791 99.1369 
-429.66 91.5536 1438.43 3.07102 5.00017 -123.001 0 8 0 7.5396 2.09268 14.1352 0 8 -1.13687e-13 -0.606746 1.16698 6.41752 2.27374e-13 8 1.13687e-13 -0.295758 0.597217 3.21063 -2.27374e-13 8 1.13687e-13 -0.280029 0.588198 3.20198 0 17 -5.68434e-14 1.82599 3.36429 7.54691 2.27374e-13 10.8 0 -1.64765 -6.35851 17.7601 5 17 5.68434e-14 -1.15741 4.87655 -6.28397 6.45 2.84217e-14 5.68434e-14 -0.474963 -0.691711 1.54696 6.45 -5.68434e-14 0 14.7335 -13.0116 22.6634 0 -32.4 -2 -74.5694 -36.9681 -50.0197 0 -25.65 2 -6.67991 14.2614 26.9417 -0.5 -1.5 2.65 -8.89859 -26.1017 5.54178 -1.13687e-13 -3.8 3.7 16.0306 28.3124 3.31434 0 -3 2.7 0.0019544 0.0260763 0.000199173 2.27374e-13 -1.9 1.6 1.06843e-06 -9.74244e-07 -9.05516e-07 0 -8.3 1.9 -1.22633 5.11924 0.105145 0 -4.5 0 -30.9465 0.0354958 0.018146 -1.13687e-13 -3.4 -1.13687e-13 -22.5643 0.00728467 0.0141086 -0.25 -2.2 0.4 1.06843e-06 -9.74244e-07 -9.05516e-07 2.27374e-13 -8.3 1 -12.2276 7.18851 1.059 0 -4.65 2.27374e-13 -70.3469 -0.00549104 0.00627561 -1.13687e-13 -3.3 3.41061e-13 -90.0002 -2.08299e-05 -0.0123834 -0.5 -2.15 -0.8 1.06843e-06 -9.74244e-07 -9.05516e-07 -2.27374e-13 -7.75 -0.2 -22.7483 -4.72216 -0.257192 0 -3.8 0 -0.28861 0.0395344 -0.112669 0 -3.4 -2.27374e-13 -26.093 0.00157903 0.000905741 -0.75 -1.75 -1.85 1.06843e-06 -9.74244e-07 -9.05516e-07 -2.27374e-13 -7.15 -1 -33.0983 -2.37076 0.730575 -1.13687e-13 -3 0 -0.0953862 0.0156196 0.0373175 0 -2.35 0 -0.000125137 0.00786283 0.0340813 -5 17 -5.68434e-14 6.91327 6.93571 0.154457 -6.45 -1.13687e-13 -2.27374e-13 -1.57068 -0.360362 -3.6502 -6.45 0 -8.52651e-14 -59.9436 12.8104 0.816109 1.13687e-13 -32.4 -2 93.6242 -47.0829 81.2772 1.13687e-13 -25.65 2 -12.6655 4.90192 25.6199 0.5 -1.5 2.65 -174.564 81.5968 -11.3948 -2.27374e-13 -3.8 3.7 -23.5268 42.7811 2.68978 0 -3 2.7 0.0589965 36.2502 -0.0519474 0 -1.9 1.6 -7.57073e-07 1.25919e-05 -6.07416e-06 1.13687e-13 -8.3 1.9 0.181054 3.47125 -0.0194441 1.13687e-13 -4.5 2.27374e-13 6.99333 1.5 0.0109108 3.41061e-13 -3.4 -2.27374e-13 6.63483 -0.00961425 -0.0813299 0.25 -2.2 0.4 -7.57073e-07 1.25919e-05 -6.07416e-06 5.68434e-14 -8.3 1 4.52987 10.841 -0.626395 1.13687e-13 -4.65 0 36.7111 18.9148 1.36398 -5.68434e-14 -3.3 0 30.9447 0.00894711 -0.00409486 0.5 -2.15 -0.8 -7.57073e-07 1.25919e-05 -6.07416e-06 5.68434e-14 -7.75 -0.2 25.2692 15.0622 -4.38387 2.27374e-13 -3.8 0 19.8213 20.5837 3.45302 1.7053e-13 -3.4 2.27374e-13 27.2863 -0.0246509 -0.0428886 0.75 -1.75 -1.85 -7.57073e-07 1.25919e-05 -6.07416e-06 1.13687e-13 -7.15 -1 47.3729 7.18372 -5.93649 1.13687e-13 -3 0 22.5108 15.5865 1.34994 5.68434e-14 -2.35 0 23.4312 -0.0246618 0.070899 8 0 0 33.6839 -19.6842 33.4007 0 -45 -1 -24.5915 20.7517 12.6029 -2.27374e-13 -41 -2 11.726 2.30519 -8.28193 -2.27374e-13 -7.5 12.5 -0.000307556 -0.362373 0.0877406 0 0 4 0.461146 -7.11632 4.0765 -8 -2.84217e-14 -1.13687e-13 20.1837 -25.083 -43.3118 0 -45 -1 -43.3909 1.36978 15.6619 -1.13687e-13 -41 -2 23.4115 3.73828 -15.4788 0 -7.5 12.5 0.00154349 0.276984 0.000891249 1.13687e-13 -2.84217e-14 4 0.866573 -0.0755704 99.1369 
-429.66 91.5535 1438.42 3.07263 4.99862 -123.021 -2.27374e-13 8 1.13687e-13 7.54054 2.09528 14.1448 2.27374e-13 8 -5.68434e-14 -0.606746 1.16698 6.41752 0 8 2.27374e-13 -0.295758 0.597217 3.21063 -2.27374e-13 8 1.42109e-13 -0.280198 0.589323 3.20283 0 17 -5.68434e-14 1.82779 3.34165 7.5329 4.54747e-13 10.8 0 -1.64259 -6.40764 17.7276 5 17 5.68434e-14 -1.15527 4.90073 -6.27957 6.45 2.84217e-14 0 -0.481953 -0.692142 1.55615 6.45 -5.68434e-14 -1.7053e-13 14.806 -13.1741 22.4836 0 -32.4 -2 -74.6341 -36.8897 -50.2151 -2.27374e-13 -25.65 2 -5.46991 14.0008 26.7403 -0.5 -1.5 2.65 -9.33971 -26.1415 5.25636 -1.13687e-13 -3.8 3.7 16.1543 28.4418 3.28369 2.27374e-13 -3 2.7 0.00195448 0.00485705 0.000199173 2.27374e-13 -1.9 1.6 1.06843e-06 -9.74244e-07 -9.05516e-07 2.27374e-13 -8.3 1.9 -1.27732 5.49373 0.114024 4.54747e-13 -4.5 0 -33.7272 0.0354958 0.0215646 5.68434e-14 -3.4 0 -24.2755 0.00728467 0.0141086 -0.25 -2.2 0.4 1.06843e-06 -9.74244e-07 -9.05516e-07 2.27374e-13 -8.3 1 -13.5556 8.11764 1.2686 0 -4.65 1.13687e-13 -70.7878 -0.00549104 0.00627561 0 -3.3 3.41061e-13 -90.0002 -2.08299e-05 -0.0123834 -0.5 -2.15 -0.8 1.06843e-06 -9.74244e-07 -9.05516e-07 0 -7.75 -0.2 -23.8732 -4.8602 -0.291942 2.27374e-13 -3.8 0 -0.28861 0.0395344 -0.112669 0 -3.4 -3.41061e-13 -26.2512 0.00410665 0.000905741 -0.75 -1.75 -1.85 1.06843e-06 -9.74244e-07 -9.05516e-07 -2.27374e-13 -7.15 -1 -35.0423 -2.15013 0.90765 -1.13687e-13 -3 1.13687e-13 -0.0953858 0.0156196 0.0356633 0 -2.35 0 -0.000124933 0.00786283 0.0325902 -5 17 -5.68434e-14 6.88813 6.90313 0.0852838 -6.45 -5.68434e-14 -2.27374e-13 -1.57952 -0.354122 -3.64767 -6.45 -2.84217e-14 -5.68434e-14 -59.948 12.7411 0.902001 0 -32.4 -2 93.8256 -47.2007 81.6151 1.13687e-13 -25.65 2 -12.9473 4.96566 25.9197 0.5 -1.5 2.65 -177.054 81.6383 -8.60304 -2.27374e-13 -3.8 3.7 -23.5268 42.7811 2.68978 -1.13687e-13 -3 2.7 0.0589965 36.2502 -0.0519474 -5.68434e-14 -1.9 1.6 -7.57073e-07 1.25919e-05 -6.07416e-06 5.68434e-14 -8.3 1.9 0.151714 3.1594 -0.019438 5.68434e-14 -4.5 2.27374e-13 7.2555 1.55726 0.010911 4.54747e-13 -3.4 -2.27374e-13 6.86213 -0.00869272 -0.0813299 0.25 -2.2 0.4 -7.57073e-07 1.25919e-05 -6.07416e-06 -1.13687e-13 -8.3 1 4.32443 10.773 -0.600537 1.7053e-13 -4.65 2.27374e-13 37.1293 19.2547 1.41146 5.68434e-14 -3.3 2.27374e-13 31.3062 0.00579793 -0.00375415 0.5 -2.15 -0.8 -7.57073e-07 1.25919e-05 -6.07416e-06 5.68434e-14 -7.75 -0.2 25.0731 15.1697 -4.37588 2.27374e-13 -3.8 -2.27374e-13 19.8932 20.6993 3.4954 1.13687e-13 -3.4 -2.27374e-13 27.4018 -0.0246509 -0.0428886 0.75 -1.75 -1.85 -7.57073e-07 1.25919e-05 -6.07416e-06 5.68434e-14 -7.15 -1 47.4957 7.33035 -6.02818 0 -3 0 22.1973 15.3086 1.29918 1.13687e-13 -2.35 2.27374e-13 23.1333 -0.0246618 0.0691872 8 0 1.13687e-13 33.6921 -19.6866 33.3738 0 -45 -1 -24.5949 20.76 12.6073 -2.27374e-13 -41 -2 11.7121 2.30275 -8.26706 0 -7.5 12.5 -0.000307556 -0.362373 0.0877406 2.27374e-13 0 4 0.462594 -7.11667 4.07608 -8 0 -1.13687e-13 20.1926 -25.0869 -43.316 0 -45 -1 -43.3895 1.36509 15.6612 2.27374e-13 -41 -2 23.3976 3.74031 -15.4658 1.13687e-13 -7.5 12.5 0.00154349 0.276984 0.000891249 0 2.84217e-14 4 0.86137 -0.0790087 99.1369 
